<svg xmlns="http://www.w3.org/2000/svg" width="564" height="1037" style=""><rect id="backgroundrect" width="100%" height="100%" x="0" y="0" fill="none" stroke="none"/>
    <defs fill="#00e660">
        <clipPath id="7fdpblv10a" fill="#00e660">
            <path fill="#00ff64" stroke="#00ff81" d="M1356,2052 H1920 V3089 H1356 z" id="svg_1"/>
        </clipPath>
    </defs>
    
<g class="currentLayer" style=""><title>Layer 1</title><g clip-path="url(#00ff58pblv10a)" id="svg_2" class="selected" opacity="0.74" fill-opacity="1" fill="#1a6136">
        <path fill="#1a6136" d="M563.5,914 a418.094,418.094 0 0 1 -42.073,-2.124 a412.561,412.561 0 0 1 -40.858,-6.236 c-13.258,-2.713 -26.526,-6.125 -39.436,-10.14 c-12.766,-3.9699999999999998 -25.485,-8.626 -37.807,-13.838000000000001 a411.509,411.509 0 0 1 -69.9,-37.94 a413.784,413.784 0 0 1 -111.148,-111.149 a411.433,411.433 0 0 1 -37.939,-69.9 c-5.21,-12.317 -9.866,-25.037 -13.838000000000001,-37.807 c-4.015,-12.908 -7.426,-26.176 -10.14,-39.436 a412.226,412.226 0 0 1 -6.235,-40.858 a417.574,417.574 0 0 1 0,-84.147 a412.228,412.228 0 0 1 6.235,-40.858 c2.714,-13.26 6.125,-26.528 10.14,-39.436 c3.972,-12.77 8.628,-25.49 13.838000000000001,-37.807 a411.456,411.456 0 0 1 37.939,-69.9 a413.784,413.784 0 0 1 111.148,-111.149 a411.545,411.545 0 0 1 69.9,-37.94 c12.321,-5.212 25.041,-9.867 37.807,-13.838000000000001 c12.909,-4.015 26.178,-7.427 39.436,-10.14 a412.561,412.561 0 0 1 40.858,-6.236 a417.672,417.672 0 0 1 84.146,0 a412.62,412.62 0 0 1 40.858,6.236 c13.256,2.712 26.523,6.124 39.436,10.14 c12.765,3.9699999999999998 25.484,8.626 37.807,13.838000000000001 a411.554,411.554 0 0 1 69.9,37.94 a413.784,413.784 0 0 1 111.148,111.149 a411.5,411.5 0 0 1 37.939,69.9 c5.21,12.317 9.866,25.037 13.838000000000001,37.807 c4.015,12.907 7.426,26.175 10.14,39.436 a412.2,412.2 0 0 1 6.235,40.858 a417.574,417.574 0 0 1 0,84.147 a412.2,412.2 0 0 1 -6.235,40.858 c-2.714,13.26 -6.125,26.529 -10.14,39.436 c-3.972,12.77 -8.628,25.49 -13.838000000000001,37.807 a411.547,411.547 0 0 1 -37.939,69.9 a413.784,413.784 0 0 1 -111.148,111.149 a411.518,411.518 0 0 1 -69.9,37.94 c-12.322,5.212 -25.042,9.867 -37.807,13.838000000000001 c-12.912,4.016 -26.18,7.427 -39.436,10.14 a412.62,412.62 0 0 1 -40.858,6.236 A418.094,418.094 0 0 1 563.5,914 zm0,-597.7 a187.574,187.574 0 0 0 -37.526,3.783 a185.282,185.282 0 0 0 -34.952,10.85 a186.274,186.274 0 0 0 -31.629,17.168 a187.21,187.21 0 0 0 -50.294,50.294 a186.165,186.165 0 0 0 -17.168,31.629 a185.274,185.274 0 0 0 -10.85,34.952 a188.007,188.007 0 0 0 0,75.053 a185.274,185.274 0 0 0 10.85,34.952 a186.165,186.165 0 0 0 17.168,31.629 a187.213,187.213 0 0 0 50.294,50.295 a186.252,186.252 0 0 0 31.629,17.168 a185.282,185.282 0 0 0 34.952,10.85 a188.017,188.017 0 0 0 75.053,0 a185.282,185.282 0 0 0 34.952,-10.85 a186.181,186.181 0 0 0 31.628,-17.168 a187.235,187.235 0 0 0 50.295,-50.295 a186.177,186.177 0 0 0 17.168,-31.629 a185.274,185.274 0 0 0 10.85,-34.952 a188.007,188.007 0 0 0 0,-75.053 a185.274,185.274 0 0 0 -10.85,-34.952 a186.2,186.2 0 0 0 -17.168,-31.629 a187.233,187.233 0 0 0 -50.295,-50.294 a186.2,186.2 0 0 0 -31.628,-17.168 a185.282,185.282 0 0 0 -34.952,-10.85 a187.589,187.589 0 0 0 -37.527,-3.783 z" opacity="0.74" id="svg_3"/>
    </g></g></svg>